# Blender 4.3.1
# www.blender.org
mtllib outlet.mtl
o outlet_Material.001_0
v 0.380004 0.580000 -0.024996
v 0.380000 -0.580000 -0.025000
v -0.379997 -0.580000 -0.025004
v -0.380000 0.580000 -0.025001
v -0.400001 -0.600000 0.024998
v -0.400004 0.599999 0.024996
v -0.400001 0.599999 -0.005001
v -0.399999 -0.600000 -0.005005
v 0.400000 -0.600000 0.025000
v 0.399995 0.599999 0.025006
v -0.400004 0.599999 0.024996
v -0.400001 -0.600000 0.024998
v 0.400001 0.599999 -0.004996
v -0.400001 0.599999 -0.005001
v -0.400004 0.599999 0.024996
v 0.399995 0.599999 0.025006
v 0.400000 -0.600000 -0.005000
v 0.400001 0.599999 -0.004996
v 0.399995 0.599999 0.025006
v 0.400000 -0.600000 0.025000
v 0.400000 -0.600000 -0.005000
v -0.399999 -0.600000 -0.005005
v -0.394139 -0.594142 -0.019147
v 0.394142 -0.594142 -0.019143
v 0.394142 -0.594142 -0.019143
v -0.394139 -0.594142 -0.019147
v 0.394145 0.594142 -0.019138
v 0.394142 -0.594142 -0.019143
v 0.394145 0.594142 -0.019138
v -0.394142 0.594142 -0.019143
v -0.394139 -0.594142 -0.019147
v -0.394142 0.594142 -0.019143
v 0.394145 0.594142 -0.019138
v -0.394142 0.594142 -0.019143
v 0.400000 -0.600000 0.025000
v -0.400001 -0.600000 0.024998
vn 0.1482 0.1481 -0.9778
vn 0.1482 -0.1481 -0.9778
vn -0.1481 -0.1481 -0.9778
vn -0.1481 0.1482 -0.9778
vn -0.5774 -0.5773 0.5774
vn -0.5774 0.5774 0.5773
vn -0.6871 0.6871 -0.2362
vn -0.6871 -0.6871 -0.2361
vn 0.5774 -0.5773 0.5774
vn 0.5773 0.5774 0.5774
vn -0.5774 0.5773 0.5773
vn -0.5774 -0.5773 0.5773
vn 0.6872 0.6871 -0.2361
vn -0.5774 0.5773 0.5774
vn 0.6871 -0.6871 -0.2361
vn 0.6871 0.6872 -0.2360
vn 0.5773 -0.5773 0.5774
vn 0.6872 -0.6871 -0.2361
vn -0.6872 -0.6871 -0.2362
vn -0.4975 -0.4975 -0.7107
vn 0.4975 -0.4974 -0.7106
vn 0.4975 -0.4975 -0.7106
vn 0.4976 0.4974 -0.7106
vn 0.4975 -0.4975 -0.7107
vn 0.4975 0.4975 -0.7106
vn -0.4974 0.4975 -0.7107
vn -0.4974 -0.4975 -0.7107
vn -0.4975 0.4975 -0.7107
vn -0.4974 0.4974 -0.7107
vt 0.914349 0.991161
vt 0.914346 0.266164
vt 0.472900 0.266164
vt 0.472898 0.991161
vt 0.948376 1.000000
vt 0.948376 0.250003
vt 0.931286 0.250003
vt 0.931283 1.000000
vt 0.000000 0.250001
vt 0.000001 0.999999
vt 0.464683 1.000000
vt 0.464683 0.250003
vt 0.982908 0.000000
vt 0.982910 0.500000
vt 0.999999 0.500001
vt 0.999999 0.000003
vt 0.965467 1.000000
vt 0.965467 0.250003
vt 0.948376 0.250002
vt 0.948376 1.000000
vt 0.982909 1.000000
vt 0.982908 0.500003
vt 0.974187 0.503665
vt 0.974189 0.996339
vt 0.922560 0.257325
vt 0.464685 0.257325
vt 0.922562 1.000000
vt 0.974187 0.996339
vt 0.974187 0.253664
vt 0.922565 0.253664
vt 0.922562 0.996339
vt 0.464683 1.000000
vt 0.974187 0.003660
vt 0.974190 0.496338
vt 1.000000 1.000000
vt 1.000000 0.500001
s 1
usemtl Material.001
f 1/1/1 2/2/2 3/3/3
f 1/1/1 3/3/3 4/4/4
f 5/5/5 6/6/6 7/7/7
f 5/5/5 7/7/7 8/8/8
f 9/9/9 10/10/10 11/11/11
f 9/9/9 11/11/11 12/12/12
f 13/13/13 14/14/7 15/15/14
f 13/13/13 15/15/14 16/16/10
f 17/17/15 18/18/16 19/19/10
f 17/17/15 19/19/10 20/20/17
f 21/21/18 22/22/19 23/23/20
f 21/21/18 23/23/20 24/24/21
f 25/25/22 26/26/20 3/3/3
f 25/25/22 3/3/3 2/2/2
f 2/2/2 1/1/1 27/27/23
f 2/2/2 27/27/23 25/25/22
f 28/28/24 29/29/25 18/18/16
f 28/28/24 18/18/16 17/17/15
f 8/8/8 7/7/7 30/30/26
f 8/8/8 30/30/26 31/31/27
f 26/26/20 32/32/28 4/4/4
f 26/26/20 4/4/4 3/3/3
f 1/1/1 4/4/4 32/32/28
f 1/1/1 32/32/28 27/27/23
f 33/33/23 34/34/29 14/14/7
f 33/33/23 14/14/7 13/13/13
f 21/21/18 35/35/17 36/36/12
f 21/21/18 36/36/12 22/22/19
