# Blender 4.3.0
# www.blender.org
mtllib window_blind.mtl
o pCube261_blind_0
v -5.768485 2.188284 0.020358
v -5.768485 2.213509 0.011226
v -5.794823 2.188284 0.011226
v 5.794824 2.188284 0.011226
v 5.768486 2.213509 0.011226
v 5.768486 2.188284 0.020358
v -5.794823 2.188284 -0.011222
v -5.768485 2.213509 -0.011222
v -5.768485 2.188284 -0.020356
v 5.768486 2.188284 -0.020356
v 5.768486 2.213509 -0.011222
v 5.794824 2.188284 -0.011222
v -5.794823 -2.188277 0.047083
v -5.768485 -2.213502 0.047083
v -5.768485 -2.188277 0.056214
v 5.768486 -2.188277 0.056214
v 5.768486 -2.213502 0.047083
v 5.794824 -2.188277 0.047083
v 5.768485 -1.840542 0.056214
v 5.794823 -1.840542 0.047083
v 5.768485 -1.815316 0.047083
v -5.768485 -1.840542 0.056214
v -5.768485 -1.815316 0.047083
v -5.794823 -1.840542 0.047083
v 5.768486 -1.840545 -0.056210
v 5.768486 -1.815321 -0.047078
v 5.794824 -1.840545 -0.047078
v -5.794823 -1.840545 -0.047078
v -5.768485 -1.815321 -0.047078
v -5.768485 -1.840545 -0.056210
v 5.768486 -2.188277 -0.056210
v 5.794824 -2.188277 -0.047078
v 5.768486 -2.213502 -0.047078
v -5.768485 -2.188277 -0.056210
v -5.768485 -2.213502 -0.047078
v -5.794823 -2.188277 -0.047078
v -5.794823 -2.188277 0.026816
v -5.768485 -2.213502 0.026816
v -5.768485 -2.213502 0.047083
v -5.794823 -2.188277 0.047083
v -5.794823 -2.188277 0.013901
v -5.794823 -2.188277 0.026816
v -5.794823 -1.839702 0.026601
v -5.794823 -1.834506 0.013412
v -5.768485 -2.213502 0.013901
v -5.794823 -2.188277 0.013901
v -5.794823 -2.188277 -0.013899
v -5.768485 -2.213502 -0.013899
v -5.768485 -2.213502 0.026816
v -5.768485 -2.213502 0.013901
v 5.768486 -2.213502 0.013901
v 5.768486 -2.213502 0.026816
v 5.768486 -2.213502 0.026816
v 5.794824 -2.188277 0.026816
v 5.794824 -2.188277 0.047083
v 5.768486 -2.213502 0.047083
v 5.794824 -2.188277 0.013901
v 5.768486 -2.213502 0.013901
v 5.768486 -2.213502 -0.013899
v 5.794824 -2.188277 -0.013899
v 5.794824 -2.188277 0.026816
v 5.794824 -2.188277 0.013901
v 5.794823 -1.834506 0.013412
v 5.794823 -1.839702 0.026601
v -5.768485 2.188284 0.020358
v -5.794823 2.188284 0.011226
v -5.794823 -1.798073 0.011529
v -5.769462 -1.791028 0.020358
v -5.768485 2.213509 0.011226
v -5.768485 2.188284 0.020358
v 5.768486 2.188284 0.020358
v 5.768486 2.213509 0.011226
v -5.794823 2.188284 0.011226
v -5.768485 2.213509 0.011226
v -5.768485 2.213509 -0.011222
v -5.794823 2.188284 -0.011222
v 5.794824 2.188284 0.011226
v 5.768486 2.188284 0.020358
v 5.768974 -1.790559 0.020358
v 5.794823 -1.797315 0.011142
v 5.768486 2.213509 0.011226
v 5.794824 2.188284 0.011226
v 5.794824 2.188284 -0.011222
v 5.768486 2.213509 -0.011222
v -5.794823 2.188284 -0.011222
v -5.768485 2.188284 -0.020356
v -5.768973 -1.790561 -0.020356
v -5.794823 -1.797317 -0.011137
v -5.768485 2.188284 -0.020356
v -5.768485 2.213509 -0.011222
v 5.768486 2.213509 -0.011222
v 5.768486 2.188284 -0.020356
v 5.768486 2.188284 -0.020356
v 5.794824 2.188284 -0.011222
v 5.794824 -1.798074 -0.011526
v 5.769463 -1.791029 -0.020356
v -5.768485 -2.213502 -0.026813
v -5.794823 -2.188277 -0.026813
v -5.794823 -2.188277 -0.047078
v -5.768485 -2.213502 -0.047078
v -5.768485 -2.213502 -0.013899
v -5.768485 -2.213502 -0.026813
v 5.768486 -2.213502 -0.026813
v 5.768486 -2.213502 -0.013899
v -5.794823 -2.188277 -0.026813
v -5.794823 -2.188277 -0.013899
v -5.794823 -1.834507 -0.013407
v -5.794823 -1.839705 -0.026599
v 5.794824 -2.188277 -0.026813
v 5.768486 -2.213502 -0.026813
v 5.768486 -2.213502 -0.047078
v 5.794824 -2.188277 -0.047078
v 5.794824 -2.188277 -0.013899
v 5.794824 -2.188277 -0.026813
v 5.794824 -1.839705 -0.026599
v 5.794824 -1.834507 -0.013407
v -5.768973 -1.815316 0.029322
v -5.794823 -1.839702 0.026601
v -5.794823 -1.840542 0.047083
v -5.768485 -1.815316 0.047083
v -5.769462 -1.791028 0.020358
v -5.768973 -1.815316 0.029322
v 5.768974 -1.815316 0.029322
v 5.768974 -1.790559 0.020358
v -5.794823 -1.798073 0.011529
v -5.794823 -1.797317 -0.011137
v 5.794823 -1.839702 0.026601
v 5.768974 -1.815316 0.029322
v 5.768485 -1.815316 0.047083
v 5.794823 -1.840542 0.047083
v 5.794823 -1.797315 0.011142
v 5.794824 -1.798074 -0.011526
v -5.794823 -1.839705 -0.026599
v -5.768973 -1.815321 -0.029317
v -5.768485 -1.815321 -0.047078
v -5.794823 -1.840545 -0.047078
v -5.768973 -1.815321 -0.029317
v -5.768973 -1.790561 -0.020356
v 5.769463 -1.791029 -0.020356
v 5.768974 -1.815321 -0.029317
v 5.768974 -1.815321 -0.029317
v 5.794824 -1.839705 -0.026599
v 5.794824 -1.840545 -0.047078
v 5.768486 -1.815321 -0.047078
v -5.794823 -2.188277 0.047083
v -5.768485 -2.188277 0.056214
v -5.768485 -1.840542 0.056214
v -5.794823 -1.840542 0.047083
v -5.768485 -2.188277 0.056214
v -5.768485 -2.213502 0.047083
v 5.768486 -2.213502 0.047083
v 5.768486 -2.188277 0.056214
v 5.768486 -2.188277 0.056214
v 5.794824 -2.188277 0.047083
v 5.794823 -1.840542 0.047083
v 5.768485 -1.840542 0.056214
v 5.768485 -1.840542 0.056214
v 5.768485 -1.815316 0.047083
v -5.768485 -1.815316 0.047083
v -5.768485 -1.840542 0.056214
v 5.768486 -1.840545 -0.056210
v 5.794824 -1.840545 -0.047078
v 5.794824 -2.188277 -0.047078
v 5.768486 -2.188277 -0.056210
v 5.768486 -1.815321 -0.047078
v 5.768486 -1.840545 -0.056210
v -5.768485 -1.840545 -0.056210
v -5.768485 -1.815321 -0.047078
v -5.794823 -1.840545 -0.047078
v -5.768485 -1.840545 -0.056210
v -5.768485 -2.188277 -0.056210
v -5.794823 -2.188277 -0.047078
v 5.768486 -2.188277 -0.056210
v 5.768486 -2.213502 -0.047078
v -5.768485 -2.213502 -0.047078
v -5.768485 -2.188277 -0.056210
v -5.769462 -1.791028 0.020358
v 5.768974 -1.790559 0.020358
v 5.768486 2.188284 0.020358
v -5.768485 2.188284 0.020358
v -5.768485 2.213509 0.011226
v 5.768486 2.213509 0.011226
v 5.768486 2.213509 -0.011222
v -5.768485 2.213509 -0.011222
v -5.768485 2.188284 -0.020356
v 5.768486 2.188284 -0.020356
v 5.769463 -1.791029 -0.020356
v -5.768973 -1.790561 -0.020356
v 5.794824 2.188284 -0.011222
v 5.794824 2.188284 0.011226
v -5.794823 2.188284 0.011226
v -5.794823 2.188284 -0.011222
v -5.768485 -2.188277 0.056214
v 5.768486 -2.188277 0.056214
v 5.768485 -1.840542 0.056214
v -5.768485 -1.840542 0.056214
v -5.768485 -1.840545 -0.056210
v 5.768486 -1.840545 -0.056210
v 5.768486 -2.188277 -0.056210
v -5.768485 -2.188277 -0.056210
v 5.768486 -2.213502 0.047083
v -5.768485 -2.213502 0.047083
v 5.794823 -1.840542 0.047083
v 5.794824 -2.188277 0.047083
v 5.768974 -1.815316 0.029322
v -5.768973 -1.815316 0.029322
v -5.768485 -1.815316 0.047083
v 5.768485 -1.815316 0.047083
v -5.794823 -2.188277 0.047083
v -5.794823 -1.840542 0.047083
v -5.768973 -1.815321 -0.029317
v 5.768974 -1.815321 -0.029317
v 5.768486 -1.815321 -0.047078
v -5.768485 -1.815321 -0.047078
v 5.794824 -2.188277 -0.047078
v 5.794824 -1.840545 -0.047078
v -5.768485 -2.213502 -0.047078
v 5.768486 -2.213502 -0.047078
v -5.794823 -1.840545 -0.047078
v -5.794823 -2.188277 -0.047078
v -5.769462 -1.791028 0.020358
v -5.794823 -1.798073 0.011529
v -5.794823 -1.834506 0.013412
v 5.794823 -1.834506 0.013412
v -5.794823 -1.834507 -0.013407
v 5.769463 -1.791029 -0.020356
v 5.794824 -1.798074 -0.011526
v 5.794824 -1.834507 -0.013407
vn -0.3099 0.3236 0.8940
vn 0.3099 0.3236 0.8940
vn -0.3100 0.3237 -0.8939
vn 0.3100 0.3237 -0.8939
vn -0.3099 -0.3236 0.8940
vn 0.3099 -0.3236 0.8940
vn 0.3100 0.3237 -0.8940
vn -0.3100 0.3236 -0.8940
vn 0.3100 -0.3236 -0.8940
vn -0.3100 -0.3236 -0.8940
vn -0.6917 -0.7222 -0.0000
vn -1.0000 -0.0000 -0.0000
vn -1.0000 -0.0000 -0.0001
vn -0.0000 -1.0000 -0.0000
vn 0.6917 -0.7222 -0.0000
vn 1.0000 -0.0000 -0.0000
vn 1.0000 -0.0000 -0.0001
vn -0.3276 0.0001 0.9448
vn -0.3288 0.0001 0.9444
vn -0.0000 0.3404 0.9403
vn -0.6917 0.7222 -0.0000
vn 0.3317 -0.0000 0.9434
vn 0.3314 -0.0000 0.9435
vn 0.3366 0.0054 0.9416
vn 0.3325 0.0010 0.9431
vn 0.6917 0.7222 -0.0000
vn -0.3318 -0.0000 -0.9433
vn -0.3303 -0.0000 -0.9439
vn -0.3367 0.0054 -0.9416
vn -0.3326 0.0009 -0.9431
vn -0.0000 0.3405 -0.9403
vn 0.3277 0.0001 -0.9448
vn 0.3288 0.0001 -0.9444
vn -0.7085 0.6855 0.1676
vn -0.5852 0.3166 0.7465
vn -0.6895 0.7239 0.0246
vn -0.0000 0.3433 0.9392
vn -0.0000 0.3442 0.9389
vn -0.0000 0.3430 0.9394
vn -0.0000 0.3434 0.9392
vn 0.5848 0.3173 0.7465
vn 0.7087 0.6845 0.1710
vn 0.6895 0.7239 0.0248
vn -0.5851 0.3175 -0.7462
vn -0.7086 0.6845 -0.1712
vn -0.6894 0.7240 -0.0246
vn -0.0000 0.3432 -0.9393
vn -0.0000 0.3433 -0.9392
vn -0.0000 0.3429 -0.9394
vn -0.0000 0.3431 -0.9393
vn 0.7085 0.6855 -0.1678
vn 0.5852 0.3166 -0.7465
vn 0.6895 0.7239 -0.0246
vn 0.6894 0.7239 -0.0247
vn -0.3276 -0.0000 0.9448
vn -0.3275 -0.0000 0.9448
vn -0.0000 -0.3404 0.9403
vn 0.3276 -0.0000 0.9448
vn 0.3276 -0.0000 -0.9448
vn -0.0000 0.3404 -0.9403
vn -0.3276 -0.0000 -0.9448
vn -0.0000 -0.3404 -0.9403
vn -0.0000 -0.0000 1.0000
vn -0.0000 1.0000 -0.0000
vn -0.0000 -0.0000 -1.0000
vn 1.0000 -0.0000 0.0001
vn -0.5632 0.2807 0.7772
vn -0.5634 0.2808 0.7770
vn -0.5633 0.2808 0.7771
vn 0.5636 0.2824 0.7763
vn -0.5636 0.2824 -0.7763
vn 0.5631 0.2806 -0.7773
vn 0.5632 0.2806 -0.7772
vn 0.5630 0.2807 -0.7773
vt -0.826343 0.792950
vt -0.840500 0.952172
vt -0.826343 0.952172
vt -3.339587 3.284211
vt -3.353745 3.284211
vt -3.339587 3.443434
vt -0.826343 1.343593
vt -0.840500 1.343593
vt -0.826343 1.502858
vt -3.339587 2.733525
vt -3.353745 2.892790
vt -3.339587 2.892790
vt 1.629984 0.326961
vt 1.644142 0.326961
vt 1.629984 0.167749
vt -0.883260 4.068635
vt -0.869103 3.909422
vt -0.883260 3.909422
vt -1.078425 4.068635
vt -1.078425 3.909422
vt -1.092583 3.909422
vt 1.434819 0.167749
vt 1.420662 0.326961
vt 1.434819 0.326961
vt -1.078423 2.108345
vt -1.092580 2.267579
vt -1.078423 2.267578
vt 1.434821 1.968805
vt 1.420664 1.968805
vt 1.434821 2.128038
vt -0.883261 2.108345
vt -0.883260 2.267578
vt -0.869103 2.267578
vt 1.629984 2.128038
vt 1.644142 1.968804
vt 1.629984 1.968804
vt 1.629984 0.680338
vt 1.644141 0.680338
vt 1.629984 0.905540
vt 1.434348 0.684097
vt 1.431431 0.914064
vt 1.644142 0.905540
vt 1.629984 1.390269
vt 1.644141 1.390269
vt -0.970542 -2.556045
vt -0.970542 -2.330845
vt 1.644141 -2.330844
vt 1.644141 -2.556046
vt -0.869103 3.556045
vt -0.883260 3.556045
vt -0.883260 3.330844
vt -0.869103 3.330844
vt -0.869103 2.846114
vt -0.883260 2.846114
vt -1.081813 3.322318
vt -1.078896 3.552286
vt 1.410983 0.946897
vt 1.407030 0.792950
vt -0.970542 -0.513695
vt -0.970542 -0.354472
vt 1.644142 -0.354472
vt 1.644141 -0.513694
vt -1.106478 3.443433
vt -1.102686 3.282737
vt 1.406768 1.502858
vt 1.410559 1.342120
vt -0.970542 -1.064380
vt -0.970542 -0.905115
vt 1.644141 -0.905115
vt 1.644141 -1.064381
vt -1.102260 2.887493
vt -1.106213 2.733525
vt 1.644142 1.615448
vt 1.629984 1.615448
vt -0.970543 -1.846115
vt -0.970543 -1.620935
vt 1.644141 -1.620935
vt 1.644141 -1.846115
vt 1.431432 1.381701
vt 1.434349 1.611711
vt -0.883260 2.620935
vt -0.869103 2.620935
vt -1.078895 2.624672
vt -1.081812 2.854682
vt 1.420662 0.636652
vt 1.672744 3.443433
vt 1.672854 3.599731
vt 4.287759 3.599730
vt 4.287759 3.443433
vt -1.092583 3.599731
vt 1.420664 1.659112
vt 1.672743 3.240623
vt 1.672743 3.396877
vt 4.287759 3.396877
vt 4.287648 3.240623
vt -1.092580 2.577271
vt -0.970543 -3.068635
vt -0.970543 -2.909423
vt 1.644141 -2.909423
vt 1.644141 -3.068635
vt 4.287648 4.068634
vt 4.287648 3.909422
vt 1.672965 3.909422
vt 1.672965 4.068635
vt 4.287537 2.930931
vt 4.287537 2.771698
vt 1.672854 2.771698
vt 1.672854 2.930931
vt 1.644141 -1.108346
vt 1.644141 -1.267579
vt -0.970542 -1.267579
vt -0.970542 -1.108346
vt 1.672744 2.726517
vt 4.287758 2.726253
vt 4.287648 0.493144
vt 1.672965 0.493144
vt 1.672854 0.436120
vt 4.287537 0.436120
vt 4.287758 -1.797254
vt 1.672743 -1.796991
vt -0.970542 -0.115343
vt 1.644141 -0.115343
vt 1.644141 -0.310508
vt -0.970542 -0.310508
vt -0.970542 0.123785
vt 1.644142 0.123785
vt 1.644142 -0.071378
vt -0.970542 -0.071378
s 0
usemtl blind
f 1/1/1 2/2/1 3/3/1
f 4/4/2 5/5/2 6/6/2
f 7/7/3 8/8/3 9/9/3
f 10/10/4 11/11/4 12/12/4
f 13/13/5 14/14/5 15/15/5
f 16/16/6 17/17/6 18/18/6
s 1
f 19/19/2 20/20/2 21/21/2
s 0
f 22/22/1 23/23/1 24/24/1
f 25/25/7 26/26/7 27/27/7
f 28/28/8 29/29/8 30/30/8
f 31/31/9 32/32/9 33/33/9
f 34/34/10 35/35/10 36/36/10
f 37/37/11 38/38/11 39/14/11
f 37/37/11 39/14/11 40/13/11
f 41/39/12 42/37/12 43/40/12
f 41/39/13 43/40/13 44/41/13
f 45/42/11 46/39/11 47/43/11
f 45/42/11 47/43/11 48/44/11
f 49/45/14 50/46/14 51/47/14
f 49/45/14 51/47/14 52/48/14
f 53/49/15 54/50/15 55/18/15
f 53/49/15 55/18/15 56/17/15
f 57/51/15 58/52/15 59/53/15
f 57/51/15 59/53/15 60/54/15
f 61/50/16 62/51/16 63/55/16
f 61/50/17 63/55/17 64/56/17
f 65/1/18 66/3/18 67/57/18
f 65/1/19 67/57/19 68/58/19
f 69/59/20 70/60/20 71/61/20
f 69/59/20 71/61/20 72/62/20
f 73/3/21 74/2/21 75/8/21
f 73/3/21 75/8/21 76/7/21
s 1
f 77/4/22 78/6/23 79/63/24
f 77/4/22 79/63/24 80/64/25
s 0
f 81/5/26 82/4/26 83/12/26
f 81/5/26 83/12/26 84/11/26
s 1
f 85/7/27 86/9/28 87/65/29
f 85/7/27 87/65/29 88/66/30
s 0
f 89/67/31 90/68/31 91/69/31
f 89/67/31 91/69/31 92/70/31
f 93/10/32 94/12/32 95/71/32
f 93/10/33 95/71/33 96/72/33
f 97/73/11 98/74/11 99/36/11
f 97/73/11 99/36/11 100/35/11
f 101/75/14 102/76/14 103/77/14
f 101/75/14 103/77/14 104/78/14
f 105/74/12 106/43/12 107/79/12
f 105/74/13 107/79/13 108/80/13
f 109/81/15 110/82/15 111/33/15
f 109/81/15 111/33/15 112/32/15
f 113/54/16 114/81/16 115/83/16
f 113/54/16 115/83/16 116/84/16
s 1
f 117/85/34 118/40/35 119/24/36
f 117/85/34 119/24/36 120/23/36
f 121/86/37 122/87/38 123/88/39
f 121/86/37 123/88/39 124/89/40
s 0
f 44/41/12 125/57/12 126/66/12
f 44/41/12 126/66/12 107/79/12
s 1
f 127/56/41 128/90/42 129/21/43
f 127/56/41 129/21/43 130/20/43
s 0
f 131/64/16 63/55/16 116/84/16
f 131/64/16 116/84/16 132/71/16
s 1
f 133/80/44 134/91/45 135/29/46
f 133/80/44 135/29/46 136/28/46
f 137/92/47 138/93/48 139/94/49
f 137/92/47 139/94/49 140/95/50
f 141/96/51 142/83/52 143/27/53
f 141/96/51 143/27/53 144/26/54
f 145/13/55 146/15/55 147/22/55
s 0
f 145/13/56 147/22/56 148/24/56
f 149/97/57 150/98/57 151/99/57
f 149/97/57 151/99/57 152/100/57
s 1
f 153/16/58 154/18/58 155/20/58
s 0
f 153/16/58 155/20/58 156/19/58
f 157/101/20 158/102/20 159/103/20
f 157/101/20 159/103/20 160/104/20
f 161/25/59 162/27/59 163/32/59
f 161/25/59 163/32/59 164/31/59
f 165/105/60 166/106/60 167/107/60
f 165/105/60 167/107/60 168/108/60
f 169/28/61 170/30/61 171/34/61
f 169/28/61 171/34/61 172/36/61
f 173/109/62 174/110/62 175/111/62
f 173/109/62 175/111/62 176/112/62
f 177/113/63 178/114/63 179/115/63
f 177/113/63 179/115/63 180/116/63
f 181/59/64 182/62/64 183/69/64
f 181/59/64 183/69/64 184/68/64
f 185/117/65 186/118/65 187/119/65
f 185/117/65 187/119/65 188/120/65
f 101/75/14 104/78/14 51/47/14
f 101/75/14 51/47/14 50/46/14
f 131/64/66 132/71/66 189/12/66
f 131/64/16 189/12/16 190/4/16
f 126/66/12 125/57/12 191/3/12
f 126/66/12 191/3/12 192/7/12
f 193/121/63 194/122/63 195/123/63
f 193/121/63 195/123/63 196/124/63
f 62/51/16 113/54/16 116/84/16
f 62/51/16 116/84/16 63/55/16
f 197/125/65 198/126/65 199/127/65
f 197/125/65 199/127/65 200/128/65
f 106/43/12 41/39/12 44/41/12
f 106/43/12 44/41/12 107/79/12
f 49/45/14 52/48/14 201/99/14
f 49/45/14 201/99/14 202/98/14
f 61/50/16 64/56/16 203/20/16
f 61/50/16 203/20/16 204/18/16
f 205/88/64 206/87/64 207/103/64
f 205/88/64 207/103/64 208/102/64
f 43/40/12 42/37/12 209/13/12
f 43/40/12 209/13/12 210/24/12
f 211/92/64 212/95/64 213/105/64
f 211/92/64 213/105/64 214/108/64
f 115/83/16 114/81/16 215/32/16
f 115/83/16 215/32/16 216/27/16
f 103/77/14 102/76/14 217/111/14
f 103/77/14 217/111/14 218/110/14
f 105/74/12 108/80/12 219/28/12
f 105/74/12 219/28/12 220/36/12
s 1
f 37/37/11 46/39/11 45/42/11
s 0
f 37/37/11 45/42/11 38/38/11
f 53/49/15 58/52/15 57/51/15
f 53/49/15 57/51/15 54/50/15
f 97/73/11 48/44/11 47/43/11
f 97/73/11 47/43/11 98/74/11
f 109/81/15 60/54/15 59/53/15
f 109/81/15 59/53/15 110/82/15
s 1
f 117/85/34 223/41/67 118/40/35
f 223/41/67 117/85/34 222/57/68
f 222/57/68 117/85/34 221/58/69
f 224/55/70 128/90/42 127/56/41
f 128/90/42 224/55/70 80/64/25
f 128/90/42 80/64/25 79/63/24
f 225/79/71 134/91/45 133/80/44
f 134/91/45 225/79/71 88/66/30
f 134/91/45 88/66/30 87/65/29
f 141/96/51 228/84/72 142/83/52
f 228/84/72 141/96/51 227/71/73
f 227/71/73 141/96/51 226/72/74
