# Blender 4.3.0
# www.blender.org
mtllib cube.mtl
o Cube
v 0.500000 0.500000 -0.500000
v 0.500000 -0.500000 -0.500000
v 0.500000 0.500000 0.500000
v 0.500000 -0.500000 0.500000
v -0.500000 0.500000 -0.500000
v -0.500000 -0.500000 -0.500000
v -0.500000 0.500000 0.500000
v -0.500000 -0.500000 0.500000
vn -0.0000 1.0000 -0.0000
vn -0.0000 -0.0000 1.0000
vn -1.0000 -0.0000 -0.0000
vn -0.0000 -1.0000 -0.0000
vn 1.0000 -0.0000 -0.0000
vn -0.0000 -0.0000 -1.0000
vt 1.913561 1.181860
vt 0.506843 1.195547
vt 1.203359 0.485344
vt -0.899875 1.209233
vt -0.203359 0.499031
vt 0.625000 0.000000
vt 0.375000 0.250000
vt 0.375000 0.000000
vt 0.375000 0.500000
vt 0.125000 0.750000
vt 0.125000 0.500000
vt 0.493157 -0.211171
vt 0.625000 0.250000
vt 1.217045 1.892062
vt -0.189672 1.905749
vt -0.913561 -0.197485
vt 1.899875 -0.224858
s 1
usemtl Material.001
f 5/1/1 3/2/1 1/3/1
f 3/2/2 8/4/2 4/5/2
f 7/6/3 6/7/3 8/8/3
f 2/9/4 8/10/4 6/11/4
f 1/3/5 4/5/5 2/12/5
f 5/13/6 2/9/6 6/7/6
f 5/1/1 7/14/1 3/2/1
f 3/2/2 7/15/2 8/4/2
f 7/6/3 5/13/3 6/7/3
f 2/12/4 4/5/4 8/16/4
f 1/3/5 3/2/5 4/5/5
f 5/17/6 1/3/6 2/12/6
