# Blender 4.2.3 LTS
# www.blender.org
mtllib cube.mtl
o Cube.001
v 0.500000 0.500000 -0.500000
v 0.500000 -0.500000 -0.500000
v 0.500000 0.500000 0.500000
v 0.500000 -0.500000 0.500000
v -0.500000 0.500000 -0.500000
v -0.500000 -0.500000 -0.500000
v -0.500000 0.500000 0.500000
v -0.500000 -0.500000 0.500000
vn -0.0000 1.0000 -0.0000
vn -0.0000 -0.0000 1.0000
vn -1.0000 -0.0000 -0.0000
vn -0.0000 -1.0000 -0.0000
vn 1.0000 -0.0000 -0.0000
vn -0.0000 -0.0000 -1.0000
vt -0.727472 -0.694407
vt 1.736440 0.104896
vt -0.735369 0.102309
vt 4.200350 0.904199
vt 1.728543 0.901612
vt 0.625000 0.000000
vt 0.375000 0.250000
vt 0.375000 0.000000
vt 0.375000 0.500000
vt 0.125000 0.750000
vt 0.125000 0.500000
vt -0.743266 0.899026
vt 0.625000 0.250000
vt 1.744337 -0.691821
vt 4.208246 0.107482
vt 1.720646 1.698329
vt -3.207177 0.099723
s 0
f 5/1/1 3/2/1 1/3/1
f 3/2/2 8/4/2 4/5/2
f 7/6/3 6/7/3 8/8/3
f 2/9/4 8/10/4 6/11/4
f 1/3/5 4/5/5 2/12/5
f 5/13/6 2/9/6 6/7/6
f 5/1/1 7/14/1 3/2/1
f 3/2/2 7/15/2 8/4/2
f 7/6/3 5/13/3 6/7/3
f 2/12/4 4/5/4 8/16/4
f 1/3/5 3/2/5 4/5/5
f 5/17/6 1/3/6 2/12/6
